Coordinates
version=1
nRows=4
nColumns=107
inDegrees=yes

Units are S.I. units (second, meters, Newtons, ...)
If the header above contains a line with 'inDegrees', this indicates whether rotational values are in degrees (yes) or radians (no).

endheader
time	sternoclavicular_r2	sternoclavicular_r3	unrotscap_r3	unrotscap_r2	acromioclavicular_r2	acromioclavicular_r3	acromioclavicular_r1	unrothum_r1	unrothum_r3	unrothum_r2	elv_angle	shoulder_elv	shoulder1_r2	shoulder_rot	elbow_flexion	pro_sup	deviation	flexion	proximal_distal_r1	proximal_distal_r3	cmc_flexion	cmc_abduction	mp_flexion	ip_flexion	mcp2_flexion	mcp2_abduction	pm2_flexion	md2_flexion	mcp3_flexion	mcp3_abduction	pm3_flexion	md3_flexion	mcp4_flexion	mcp4_abduction	pm4_flexion	md4_flexion	mcp5_flexion	mcp5_abduction	pm5_flexion	md5_flexion	bicpt_tx	bicpt_ty	bicpt_tz	bicpt2_tx	bicpt2_ty	bicpt2_tz	ptpt_tx	ptpt_ty	ptpt_tz	FCUpt_tx	FCUpt_ty	FCUpt_tz	EDCpt_tx	EDCpt_ty	EDCpt_tz	APLpt_tx	APLpt_ty	APLpt_tz	FPLpt_tx	FPLpt_ty	FPLpt_tz	FPLpt2_tx	FPLpt2_ty	FPLpt2_tz	PEC1pt2_tx	PEC1pt2_ty	PEC1pt2_tz	PEC1pt3_tx	PEC1pt3_ty	PEC1pt3_tz	PEC2pt2_tx	PEC2pt2_ty	PEC2pt2_tz	PEC2pt3_tx	PEC2pt3_ty	PEC2pt3_tz	PEC3pt2_tx	PEC3pt2_ty	PEC3pt2_tz	PEC3pt3_tx	PEC3pt3_ty	PEC3pt3_tz	DELT2pt2a_tx	DELT2pt2a_ty	DELT2pt2a_tz	DELT2pt2_tx	DELT2pt2_ty	DELT2pt2_tz	LAT1pt2_tx	LAT1pt2_ty	LAT1pt2_tz	LAT1pt3_tx	LAT1pt3_ty	LAT1pt3_tz	LAT2pt2_tx	LAT2pt2_ty	LAT2pt2_tz	LAT2pt3_tx	LAT2pt3_ty	LAT2pt3_tz	LAT3pt2_tx	LAT3pt2_ty	LAT3pt2_tz	LAT3pt3_tx	LAT3pt3_ty	LAT3pt3_tz
      0.50000000	     -0.31371471	      0.13287474	     -0.13287474	      0.31371471	     -0.06352085	      0.51335314	      0.23074870	     -0.23074870	     -0.51335314	      0.06352085	    100.78192915	     74.27474540	     -1.75897649	    -35.72208152	     32.06641573	     84.29692224	      0.35079699	     -0.53168829	      0.37535702	     -0.26584414	     42.23402742	    -22.62093118	     10.87786836	      8.35123032	     88.42178507	     13.26785618	     76.13790159	     88.04172776	     93.35761760	      0.62557436	     78.20734400	     55.63868984	     90.37372310	    -13.65811053	     89.88338950	     41.00696756	     96.95223403	    -14.31917923	     89.51520855	      5.46450309	      0.00096066	     -0.03127530	     -0.00489199	      0.01441272	     -0.01891100	     -0.00136571	      0.00132141	     -0.06892751	     -0.00684057	      0.01254279	     -0.18229501	      0.00003795	     -0.01011561	      0.00348499	     -0.00070330	      0.00030725	      0.00012290	      0.00061450	      0.00039328	      0.00117984	      0.00066366	     -0.00000691	     -0.00006490	     -0.00007788	      0.00243456	      0.00854160	      0.00594198	     -0.00796391	      0.01922892	     -0.01823859	      0.00243456	      0.00854160	      0.00594198	      0.00053643	      0.01782595	     -0.00936688	      0.00387565	      0.00474988	      0.01578823	      0.00000000	      0.00737538	      0.00000000	     -0.00697358	     -0.03222701	     -0.00607898	      0.02119620	     -0.00095673	     -0.01047228	     -0.00086654	      0.01452485	     -0.00594198	      0.00239330	      0.02096200	     -0.01733079	     -0.00581819	      0.01258545	     -0.00532303	     -0.01213155	      0.02657388	     -0.02975119	     -0.02277761	      0.01407095	     -0.00713863	     -0.01510254	      0.03070025	     -0.03717867
      0.53333333	     -0.31347308	      0.13277240	     -0.13277240	      0.31347308	     -0.06347192	      0.51295775	      0.23057098	     -0.23057098	     -0.51295775	      0.06347192	    100.82129419	     74.21753808	     -1.75966354	    -35.96344381	     32.13669455	     84.51838633	      0.35041471	     -0.52737957	      0.37505779	     -0.26368978	     42.16176198	    -22.60506291	     11.03857817	      8.20693209	     88.22582399	     13.27230841	     76.15805018	     87.78409537	     93.18620247	      0.72464967	     78.40424548	     55.58414942	     90.33930331	    -13.64803459	     89.94792580	     41.14053275	     96.78874866	    -14.31923238	     89.77799426	      5.44529948	      0.00096298	     -0.03128336	     -0.00489329	      0.01439055	     -0.01893009	     -0.00132823	      0.00130504	     -0.06893809	     -0.00685841	      0.01256814	     -0.18228760	      0.00004381	     -0.01014218	      0.00349705	     -0.00071024	      0.00030667	      0.00012267	      0.00061333	      0.00039253	      0.00117760	      0.00066240	     -0.00000706	     -0.00006648	     -0.00007978	      0.00243269	      0.00853502	      0.00593741	     -0.00795778	      0.01921411	     -0.01822454	      0.00243269	      0.00853502	      0.00593741	      0.00053602	      0.01781222	     -0.00935966	      0.00387345	      0.00474622	      0.01578267	      0.00000000	      0.00736396	      0.00000000	     -0.00696821	     -0.03220219	     -0.00606949	      0.02128379	     -0.00096533	     -0.01060586	     -0.00086587	      0.01451366	     -0.00593741	      0.00239146	      0.02094586	     -0.01731744	     -0.00581371	      0.01257576	     -0.00531893	     -0.01212221	      0.02655341	     -0.02972827	     -0.02276006	      0.01406011	     -0.00713314	     -0.01509091	      0.03067661	     -0.03715003
      0.56666667	     -0.31343404	      0.13275587	     -0.13275587	      0.31343404	     -0.06346402	      0.51289387	      0.23054226	     -0.23054226	     -0.51289387	      0.06346402	    100.80838460	     74.20829537	     -1.75943822	    -35.94644529	     32.16159220	     84.46999185	      0.35040241	     -0.52598428	      0.37504760	     -0.26299214	     42.13924377	    -22.61752835	     10.61130965	      8.63521572	     88.01739661	     13.27423116	     76.33176297	     87.14262839	     93.09414278	      0.67424070	     78.47294981	     55.61553697	     90.35784394	    -13.64754279	     89.83057514	     41.35941577	     96.58834391	    -14.31862494	     90.00897801	      5.44783014	      0.00096381	     -0.03128621	     -0.00489375	      0.01439538	     -0.01893685	     -0.00133641	      0.00130862	     -0.06893578	     -0.00685451	      0.01256260	     -0.18228922	      0.00004254	     -0.01013638	      0.00349441	     -0.00070872	      0.00030647	      0.00012259	      0.00061294	      0.00039228	      0.00117684	      0.00066197	     -0.00000710	     -0.00006697	     -0.00008037	      0.00243239	      0.00853396	      0.00593667	     -0.00795679	      0.01921172	     -0.01822227	      0.00243239	      0.00853396	      0.00593667	      0.00053595	      0.01781001	     -0.00935850	      0.00387309	      0.00474563	      0.01578177	      0.00000000	      0.00736211	      0.00000000	     -0.00696734	     -0.03219818	     -0.00606796	      0.02127759	     -0.00096473	     -0.01059647	     -0.00086576	      0.01451186	     -0.00593667	      0.00239116	      0.02094325	     -0.01731528	     -0.00581299	      0.01257419	     -0.00531827	     -0.01212070	      0.02655010	     -0.02972457	     -0.02275723	      0.01405836	     -0.00713225	     -0.01508903	      0.03067279	     -0.03714541
      0.60000000	     -0.31325430	      0.13267973	     -0.13267973	      0.31325430	     -0.06342762	      0.51259974	      0.23041005	     -0.23041005	     -0.51259974	      0.06342762	    100.92081914	     74.16573904	     -1.76140058	    -36.33019494	     32.10747953	     84.67890722	      0.34555431	     -0.53795690	      0.37123040	     -0.26897845	     42.11996687	    -22.62686233	     10.66467111	      8.35031845	     88.25053405	     13.28201846	     75.95976958	     87.45837250	     93.20727405	      0.66233639	     78.27225062	     55.59932731	     90.61276528	    -13.64992190	     89.63466742	     41.30340447	     96.89747292	    -14.31872512	     89.57150235	      5.45068376	      0.00096202	     -0.03128001	     -0.00489275	      0.01437447	     -0.01892215	     -0.00130105	      0.00129318	     -0.06894576	     -0.00687134	      0.01258651	     -0.18228223	      0.00004807	     -0.01016145	      0.00350579	     -0.00071527	      0.00030805	      0.00012322	      0.00061610	      0.00039430	      0.00118291	      0.00066538	     -0.00000714	     -0.00006739	     -0.00008087	      0.00243099	      0.00852907	      0.00593326	     -0.00795222	      0.01920070	     -0.01821182	      0.00243099	      0.00852907	      0.00593326	      0.00053564	      0.01779979	     -0.00935313	      0.00387145	      0.00474291	      0.01577762	      0.00000000	      0.00735362	      0.00000000	     -0.00696334	     -0.03217972	     -0.00606090	      0.02141620	     -0.00097842	     -0.01080934	     -0.00086527	      0.01450353	     -0.00593326	      0.00238979	      0.02093124	     -0.01730535	     -0.00580965	      0.01256698	     -0.00531522	     -0.01211375	      0.02653488	     -0.02970752	     -0.02274418	      0.01405030	     -0.00712816	     -0.01508038	      0.03065520	     -0.03712410
